<svg xmlns="http://www.w3.org/2000/svg" viewBox="0 0 744.6 622.23"><defs><style>.cls-1{fill:#3a6ea5;}.cls-2{fill:#2c3e50;}</style></defs><title>Asset 5</title><g id="Layer_2" data-name="Layer 2"><g id="Layer_2-2" data-name="Layer 2"><path class="cls-1" d="M659.78,317.53,659,428.63l-9.34-.11-179.47-1.87-55-.6-17-.16-55-.61.09-10.1v-.11q15-42.81,28.69-81.35c-2.34-6.58-4.72-13.06-7.14-19.32l13.93.17,62.71.65,13,.11L605,316.93Z" transform="translate(0)"/><path class="cls-2" d="M419.86,287.78a785.31,785.31,0,0,0-32.89-84v0C329.67,79.08,262.08,22.32,257.19,18.32L244.46,7.89C233.34-1.22,218.37,4.43,213,19.8l-6.15,17.51c-23.23,66.2-42,119-63.74,180C110.79,308.14,71.23,419.46,0,622.23H75.78c63.39-180.15,100.09-283.57,130.43-368.76,15.71-44.19,29.86-84,45.31-127.79,25.4,30.74,61.54,83.33,91.7,161.28,2.42,6.25,4.8,12.73,7.14,19.32a777.42,777.42,0,0,1,26.27,92.16c2.2,10,4.28,20.2,6.23,30.74,3.63-10.38,7.23-20.59,10.73-30.58,11.47-32.49,22.29-63.07,32.42-91.39C424,300.57,422,294.09,419.86,287.78Z" transform="translate(0)"/><path class="cls-1" d="M744.6,622.23H674.88a975.08,975.08,0,0,0-46.82-221.16,1035.88,1035.88,0,0,0-44.75-111.59C550,218.56,514.85,164.11,490.05,129.69c-13.5,36.89-33.06,90.68-57.16,158.2-2.25,6.31-4.55,12.79-6.88,19.32-10.13,28.32-20.95,58.9-32.42,91.39-3.5,10-7.1,20.2-10.73,30.58-20.69,58.9-43.19,123.61-67,193.05H240.31c29.17-85.3,56.56-164.07,81.36-234.49v-.11q15-42.83,28.69-81.35c2.29-6.48,4.59-12.9,6.79-19.16,10.74-30.14,20.73-58,29.82-83.33v0C424.92,98.35,448,36.6,448.42,35.33l7.32-19.65c6.14-16.41,23-20.86,33.79-8.95L502.43,21C511.78,31.27,715.74,260.55,744.6,622.23Z" transform="translate(0)"/></g></g></svg>