<?xml version="1.0" standalone="no"?>
<!DOCTYPE svg PUBLIC "-//W3C//DTD SVG 20010904//EN"
 "http://www.w3.org/TR/2001/REC-SVG-20010904/DTD/svg10.dtd">
<svg version="1.0" xmlns="http://www.w3.org/2000/svg"
 width="745.000000pt" height="745.000000pt" viewBox="0 0 745.000000 745.000000"
 preserveAspectRatio="xMidYMid meet">
<metadata>
Created by potrace 1.11, written by Peter Selinger 2001-2013
</metadata>
<g transform="translate(0.000000,745.000000) scale(0.100000,-0.100000)"
fill="#000000" stroke="none">
<path d="M4683 6825 c-69 -36 -111 -98 -158 -235 -5 -14 -18 -47 -25 -65 -9
-20 -23 -65 -25 -75 0 -3 -3 -9 -6 -15 -4 -5 -12 -28 -19 -50 -7 -22 -20 -56
-28 -75 -9 -19 -16 -37 -17 -40 -3 -14 -28 -86 -34 -95 -3 -5 -6 -12 -6 -15 0
-7 -45 -131 -56 -155 -9 -19 -67 -180 -73 -200 -2 -5 -6 -17 -9 -25 -4 -8 -16
-42 -27 -75 -32 -91 -61 -168 -71 -190 -7 -17 -42 -115 -53 -150 -2 -5 -9 -23
-15 -40 -7 -16 -14 -37 -16 -45 -2 -8 -17 -50 -33 -92 -17 -43 -28 -78 -25
-78 3 0 1 -6 -4 -12 -6 -7 -21 -44 -33 -83 -12 -38 -25 -74 -29 -80 -3 -5 -6
-12 -6 -15 -1 -15 -40 -110 -45 -110 -3 0 -14 23 -25 50 -11 28 -23 50 -27 50
-4 0 -8 6 -8 13 0 7 -16 44 -36 82 -91 177 -154 294 -183 343 -17 29 -31 57
-31 62 0 6 -4 10 -8 10 -4 0 -13 12 -20 28 -6 15 -25 47 -42 72 -16 25 -33 52
-37 60 -14 29 -185 283 -255 378 -62 85 -213 277 -243 308 -5 6 -35 40 -65 75
-131 151 -407 405 -487 447 -26 14 -87 17 -131 7 -44 -10 -110 -80 -135 -142
-11 -26 -37 -97 -58 -158 -21 -60 -57 -162 -79 -225 -23 -63 -43 -119 -44
-125 -2 -5 -6 -17 -9 -25 -4 -8 -22 -60 -41 -115 -18 -55 -40 -113 -46 -130
-7 -16 -15 -39 -17 -50 -1 -11 -7 -29 -12 -40 -5 -11 -14 -33 -19 -50 -6 -16
-33 -95 -62 -175 -29 -80 -76 -215 -106 -300 -30 -85 -57 -162 -61 -170 -3 -8
-7 -19 -8 -25 -3 -10 -106 -298 -217 -605 -32 -91 -61 -172 -63 -180 -2 -8
-13 -40 -24 -70 -83 -230 -191 -535 -271 -765 -22 -66 -45 -129 -50 -140 -4
-11 -25 -67 -45 -125 -20 -58 -44 -125 -53 -150 -9 -25 -17 -47 -18 -50 0 -3
-3 -12 -7 -20 -8 -21 -71 -202 -98 -280 -12 -36 -27 -78 -34 -95 -7 -16 -24
-64 -38 -105 -33 -98 -98 -283 -137 -390 -17 -47 -33 -92 -35 -101 -2 -8 -10
-32 -19 -52 -8 -21 -15 -38 -15 -40 0 -4 -12 -40 -26 -77 -27 -69 -50 -135
-50 -142 0 -3 -3 -10 -7 -14 -5 -4 -8 -17 -8 -29 0 -12 -3 -25 -8 -29 -4 -4
-7 -11 -8 -14 0 -4 -3 -14 -7 -22 -3 -8 -22 -62 -42 -120 -48 -137 -74 -211
-82 -230 -8 -18 -6 -14 -22 -70 -7 -25 -16 -49 -19 -54 -7 -12 -69 -186 -89
-251 -8 -27 -18 -54 -21 -60 -4 -5 -7 -14 -8 -20 -1 -5 -10 -30 -19 -55 -9
-25 -21 -57 -25 -72 l-9 -28 379 0 378 0 12 33 c7 17 31 88 55 157 24 69 64
184 90 255 26 72 48 135 49 140 2 6 6 17 9 25 4 8 25 67 47 130 44 128 119
344 205 585 31 88 72 205 91 260 19 55 38 109 43 120 5 11 39 108 76 215 38
107 72 201 78 208 5 6 7 12 3 12 -3 0 8 37 25 83 17 45 60 165 96 267 35 102
86 246 113 320 27 74 51 146 55 160 4 14 13 39 20 55 7 17 23 59 36 95 12 36
48 139 81 230 33 91 61 170 62 177 1 7 5 16 9 19 4 4 7 14 7 22 0 8 6 28 14
45 8 18 34 88 57 157 23 69 46 129 51 135 4 5 8 16 8 23 0 14 51 161 71 207 5
11 13 34 18 50 14 46 110 315 116 326 4 5 8 17 10 26 2 10 29 90 60 178 31 88
65 182 74 209 l17 49 78 -99 c101 -130 99 -128 111 -146 23 -37 89 -133 94
-138 3 -3 11 -14 18 -25 7 -11 44 -71 83 -133 38 -61 70 -117 70 -122 0 -6 5
-10 10 -10 6 0 10 -5 10 -10 0 -6 11 -27 24 -48 55 -85 210 -392 293 -582 55
-125 75 -170 78 -180 1 -3 5 -12 8 -20 4 -8 31 -78 60 -155 l53 -140 -43 -120
c-53 -150 -78 -219 -147 -420 -31 -88 -59 -167 -63 -175 -3 -8 -7 -21 -9 -28
-1 -8 -6 -21 -10 -30 -4 -9 -8 -21 -10 -27 -2 -11 -72 -209 -82 -235 -3 -8 -6
-17 -7 -20 -1 -3 -5 -13 -9 -22 -4 -9 -9 -22 -10 -30 -2 -7 -6 -20 -9 -28 -11
-25 -138 -392 -153 -440 -8 -25 -18 -54 -23 -65 -6 -11 -23 -60 -40 -110 -16
-49 -55 -161 -85 -248 -30 -86 -52 -157 -48 -157 4 0 3 -4 -3 -8 -5 -4 -18
-29 -27 -57 -9 -27 -37 -111 -63 -185 -25 -74 -48 -142 -51 -150 -3 -8 -6 -17
-6 -20 0 -3 -9 -27 -20 -55 -11 -27 -21 -57 -23 -65 -2 -8 -38 -114 -79 -234
-42 -121 -76 -223 -76 -228 0 -5 170 -7 377 -6 l377 3 12 40 c7 22 40 119 74
215 34 96 64 184 67 195 3 11 7 27 11 35 3 8 6 17 7 20 1 3 4 12 8 20 11 29
78 226 99 290 11 36 23 70 26 75 4 6 7 15 8 20 3 14 103 305 114 330 13 30
110 312 110 320 0 4 6 21 14 38 7 18 26 68 40 112 15 44 30 87 33 95 4 8 7 17
8 20 6 16 18 51 33 90 l18 45 288 0 c158 0 290 -3 292 -6 2 -4 19 -3 38 1 19
4 37 6 40 3 2 -2 237 -6 523 -9 1063 -8 1336 -13 1342 -21 4 -4 17 -42 29 -83
12 -41 31 -106 42 -144 11 -37 22 -78 24 -90 3 -11 23 -93 46 -181 34 -132
103 -445 115 -520 5 -31 14 -87 20 -117 3 -16 7 -40 10 -55 3 -16 7 -44 10
-63 3 -19 7 -44 9 -55 5 -27 14 -90 21 -145 3 -25 8 -52 10 -60 2 -8 6 -42 10
-75 3 -33 8 -71 10 -85 2 -14 6 -54 10 -90 3 -36 8 -74 10 -85 2 -11 4 -35 4
-52 l1 -33 350 0 350 0 -5 68 c-3 37 -7 81 -9 97 -2 17 -7 59 -10 95 -4 36 -9
81 -11 100 -3 20 -7 58 -10 85 -3 28 -7 59 -9 71 -2 12 -7 45 -11 75 -3 30 -8
65 -10 79 -3 14 -7 41 -9 60 -7 53 -16 106 -32 200 -8 47 -17 99 -19 115 -3
17 -9 53 -15 80 -6 28 -12 61 -15 75 -3 14 -7 36 -10 50 -13 60 -16 77 -25
120 -13 68 -20 102 -30 140 -5 19 -12 50 -15 69 -3 19 -8 37 -10 41 -2 3 -6
17 -9 31 -30 158 -207 779 -253 889 -3 8 -8 26 -10 39 -2 14 -8 32 -13 41 -5
10 -21 53 -35 96 -14 43 -30 88 -35 99 -10 24 -23 58 -24 65 -3 16 -113 301
-141 365 -8 17 -23 55 -35 85 -12 30 -32 78 -46 108 -13 29 -24 55 -24 57 0 4
-22 54 -85 190 -7 17 -59 123 -114 238 -55 114 -101 211 -101 215 -1 4 -5 12
-10 17 -4 6 -36 64 -70 130 -35 66 -68 127 -74 135 -7 8 -18 29 -26 45 -8 17
-23 42 -33 58 -10 15 -15 27 -10 27 4 0 3 4 -2 8 -10 6 -144 231 -154 257 -2
5 -7 12 -10 15 -4 3 -31 46 -61 95 -30 50 -85 136 -122 192 -37 56 -68 107
-68 112 0 5 -4 11 -8 13 -5 2 -33 39 -62 83 -29 44 -57 82 -62 83 -4 2 -8 8
-8 13 0 18 -337 459 -425 555 -5 7 -35 39 -65 73 -110 124 -126 139 -160 158
-40 22 -122 26 -157 8z m252 -1327 c6 -8 45 -66 88 -128 42 -62 77 -116 77
-120 0 -5 3 -10 8 -12 10 -5 162 -243 162 -256 0 -6 4 -12 8 -14 9 -3 148
-235 213 -353 18 -33 43 -80 57 -105 62 -113 184 -349 187 -360 1 -3 31 -66
67 -140 66 -137 86 -178 132 -282 l25 -58 -57 -1 c-31 -1 -60 -1 -64 0 -8 1
-982 11 -1365 14 -128 1 -233 5 -233 9 0 7 94 279 107 308 3 8 7 21 9 27 2 12
40 116 69 193 20 53 28 74 30 85 2 6 35 97 74 204 39 107 71 198 71 202 0 3 8
24 17 45 9 22 18 44 19 49 1 6 16 48 34 95 17 47 35 96 40 110 4 14 49 137 99
274 50 137 91 251 91 253 0 6 23 -20 35 -39z"/>
</g>
</svg>
